<?xml version="1.0" standalone="no"?><!DOCTYPE svg PUBLIC "-//W3C//DTD SVG 1.1//EN" "http://www.w3.org/Graphics/SVG/1.1/DTD/svg11.dtd"><svg t="1732242966298" class="icon" viewBox="0 0 1024 1024" version="1.1" xmlns="http://www.w3.org/2000/svg" p-id="35544" xmlns:xlink="http://www.w3.org/1999/xlink" width="64" height="64"><path d="M136 128A8 8 0 0 0 128 136v80c0 4.416 3.584 8 8 8h752a8 8 0 0 0 8-8v-80A8 8 0 0 0 888 128H136zM136 465.002667a8 8 0 0 0-8 8v80c0 4.416 3.584 8 8 8h259.797333l54.506667-96H136zM828.309333 465.002667l54.762667 96H488.661333l54.506667-96h285.141333zM500.565333 802.005333h370.730667l-47.573333 83.029334a18.56 18.56 0 0 1-16.128 9.344H564.138667a18.581333 18.581333 0 0 1-16.128-9.344l-47.445334-83.029334zM407.552 802.005333l54.869333 96H136A8 8 0 0 1 128 890.005333v-80c0-4.416 3.584-8 8-8h271.552z" p-id="35545" fill="#ffffff"></path><path d="M563.370667 450.005333a18.645333 18.645333 0 0 0-16.213334 9.429334l-116.416 205.077333a18.645333 18.645333 0 0 0 0.021334 18.453333l117.269333 205.141334c3.306667 5.802667 9.493333 9.386667 16.192 9.386666h244.373333a18.645333 18.645333 0 0 0 16.170667-9.386666l117.525333-205.098667a18.645333 18.645333 0 0 0 0-18.517333l-116.949333-205.077334a18.645333 18.645333 0 0 0-16.213333-9.408h-245.76z m123.456 336.213334a112.170667 112.170667 0 1 1 0-224.341334 112.170667 112.170667 0 0 1 0 224.32z" p-id="35546" fill="#ffffff"></path></svg>