<?xml version="1.0" standalone="no"?><!DOCTYPE svg PUBLIC "-//W3C//DTD SVG 1.1//EN" "http://www.w3.org/Graphics/SVG/1.1/DTD/svg11.dtd"><svg t="1732184010100" class="icon" viewBox="0 0 1024 1024" version="1.1" xmlns="http://www.w3.org/2000/svg" p-id="15949" xmlns:xlink="http://www.w3.org/1999/xlink" width="64" height="64"><path d="M352 0h-256C43.06432 0 0 43.06432 0 96v256C0 404.93568 43.06432 448 96 448h256c52.93568 0 96-43.06432 96-96v-256C448 43.06432 404.93568 0 352 0zM384 352A32.0256 32.0256 0 0 1 352 384h-256a32.0256 32.0256 0 0 1-32-32v-256a32.0256 32.0256 0 0 1 32-32h256A32.0256 32.0256 0 0 1 384 96v256zM352 576h-256C43.06432 576 0 619.06432 0 672v256C0 980.93568 43.06432 1024 96 1024h256c52.93568 0 96-43.06432 96-96v-256c0-52.93568-43.06432-96-96-96zM384 928a32.04608 32.04608 0 0 1-32 32h-256a32.04608 32.04608 0 0 1-32-32v-256a32.04608 32.04608 0 0 1 32-32h256a32.04608 32.04608 0 0 1 32 32v256zM672 128h320a32 32 0 1 0 0-64h-320a32 32 0 1 0 0 64zM992 640h-320a32 32 0 1 0 0 64h320a32 32 0 1 0 0-64zM992 320h-320a32 32 0 1 0 0 64h320a32 32 0 1 0 0-64zM992 896h-320a32 32 0 1 0 0 64h320a32 32 0 1 0 0-64z" p-id="15950" fill="#ffffff"></path></svg>