<?xml version="1.0" standalone="no"?><!DOCTYPE svg PUBLIC "-//W3C//DTD SVG 1.1//EN" "http://www.w3.org/Graphics/SVG/1.1/DTD/svg11.dtd"><svg t="1732184289401" class="icon" viewBox="0 0 2048 1024" version="1.1" xmlns="http://www.w3.org/2000/svg" p-id="19893" xmlns:xlink="http://www.w3.org/1999/xlink" width="128" height="64"><path d="M307.2 0a307.2 307.2 0 1 1 0 614.4 307.2 307.2 0 0 1 0-614.4z m0 204.8c-56.4224 0-102.4 45.9776-102.4 102.4 0 56.4224 45.9776 102.4 102.4 102.4 56.4224 0 102.4-45.9776 102.4-102.4 0-56.4224-45.9776-102.4-102.4-102.4z m-307.2 819.2h2048V819.2H0v204.8z m819.2-819.2h1228.8V0H819.2v204.8z m0 409.6h1228.8V409.6H819.2v204.8z" fill="#ffffff" p-id="19894"></path></svg>