<?xml version="1.0" standalone="no"?><!DOCTYPE svg PUBLIC "-//W3C//DTD SVG 1.1//EN" "http://www.w3.org/Graphics/SVG/1.1/DTD/svg11.dtd"><svg t="1732158794539" class="icon" viewBox="0 0 1024 1024" version="1.1" xmlns="http://www.w3.org/2000/svg" p-id="29769" width="64" height="64" xmlns:xlink="http://www.w3.org/1999/xlink"><path d="M105.823986 213.295843V520.279668a31.86949 31.86949 0 0 1-31.933485 31.86949H32.037797a31.86949 31.86949 0 0 1-31.86949-31.86949V202.864664A95.352491 95.352491 0 0 1 95.200823 107.512173h712.071924V11.135763A11.327108 11.327108 0 0 1 818.53586 0.00064a10.879143 10.879143 0 0 1 6.911456 2.367813l190.449002 149.108258c4.735627 3.903693 5.631557 10.879143 0 17.534619l-190.321012 149.428233a11.071128 11.071128 0 0 1-17.918589-8.76731V213.295843H105.887981z m808.12836 597.264965V503.640978a31.86949 31.86949 0 0 1 31.869491-31.86949h41.980694a31.86949 31.86949 0 0 1 31.86949 31.86949v317.542994a95.352491 95.352491 0 0 1-95.160506 95.288496H212.503585v96.37641c0 6.015526-5.119597 11.135123-11.263113 11.135123a10.879143 10.879143 0 0 1-6.783465-2.367813l-190.385008-149.108258c-4.799622-3.903693-5.759546-10.879143 0-17.598614l190.257018-149.364238a11.071128 11.071128 0 0 1 17.918589 8.76731v96.312415H913.888351z m-607.952124-504.600262h83.833399l11.519092 7.295425L509.952161 540.118106l108.663443-226.92613 11.519093-7.295425h83.833398v407.967872H628.662813V491.033971l-78.457822 153.075945-11.391103 6.911456h-57.723454l-11.327108-6.911456-78.521816-153.075945v222.894447H306.064217V305.896551z" p-id="29770" data-spm-anchor-id="a313x.search_index.0.i10.68733a81vIASnO" class="selected" fill="#ffffff"></path></svg>